<?xml version="1.0" encoding="UTF-8" standalone="no"?>
<!-- Created with Inkscape (http://www.inkscape.org/) -->

<svg
   width="450"
   height="120"
   viewBox="0 0 119.06249 31.75"
   version="1.1"
   id="svg5"
   inkscape:version="1.2.2 (732a01da63, 2022-12-09)"
   sodipodi:docname="bon_voyage.svg"
   inkscape:export-filename="画像\bon_voyage.svg"
   inkscape:export-xdpi="96"
   inkscape:export-ydpi="96"
   xmlns:inkscape="http://www.inkscape.org/namespaces/inkscape"
   xmlns:sodipodi="http://sodipodi.sourceforge.net/DTD/sodipodi-0.dtd"
   xmlns="http://www.w3.org/2000/svg"
   xmlns:svg="http://www.w3.org/2000/svg">
  <sodipodi:namedview
     id="namedview7"
     pagecolor="#ffffff"
     bordercolor="#000000"
     borderopacity="0.25"
     inkscape:showpageshadow="2"
     inkscape:pageopacity="0.0"
     inkscape:pagecheckerboard="0"
     inkscape:deskcolor="#d1d1d1"
     inkscape:document-units="mm"
     showgrid="false"
     inkscape:zoom="1.9552971"
     inkscape:cx="188.71813"
     inkscape:cy="34.265893"
     inkscape:window-width="1920"
     inkscape:window-height="974"
     inkscape:window-x="-11"
     inkscape:window-y="-11"
     inkscape:window-maximized="1"
     inkscape:current-layer="layer1" />
  <defs
     id="defs2">
    <filter
       inkscape:collect="always"
       style="color-interpolation-filters:sRGB"
       id="filter3306"
       x="-0.016890647"
       y="-0.077742271"
       width="1.0337813"
       height="1.1554846">
      <feGaussianBlur
         inkscape:collect="always"
         stdDeviation="0.53992518"
         id="feGaussianBlur3308" />
    </filter>
  </defs>
  <g
     inkscape:label="Layer 1"
     inkscape:groupmode="layer"
     id="layer1">
    <g
       id="g10576"
       transform="translate(21.480205,37.18159)">
      <g
         aria-label="Bon Voyage"
         id="text360-6"
         style="font-size:28.0988px;font-family:'Alex Brush';-inkscape-font-specification:'Alex Brush, Normal';stroke:#000000;stroke-width:1.32292;stroke-linecap:round;stroke-linejoin:bevel;filter:url(#filter3306)">
        <path
           d="m -8.480615,-11.693987 q -4.43961,0 -6.041242,-3.03467 -2.894177,2.416497 -4.130524,2.416497 -0.590075,0 -0.92726,-0.561976 -0.309087,-0.561976 -0.309087,-1.264446 0,-1.685928 1.292545,-3.933832 0.561976,-0.983458 1.236347,-1.798324 0.674371,-0.814865 1.517335,-0.814865 0.814865,0 1.236347,1.348743 l 0.842965,2.697484 q 0.44958,-0.477679 0.983458,-1.15205 0.561976,-0.70247 1.236347,-1.629731 l 2.500793,-3.371856 q 4.6082033,-5.985044 6.0412422,-6.547021 0.5057784,-0.196691 1.0115568,-0.196691 0.561976,0 0.8991616,0.252889 0.36528441,0.224791 0.36528441,0.533877 0,0.505779 -0.81486521,0.590075 -0.842964,0.47768 -3.2875597,2.837979 -1.123952,1.095853 -1.826422,1.826422 -0.6743712,0.70247 -0.9272605,1.067754 -3.1470656,4.383413 -5.8164516,6.743713 1.714027,3.399954 5.1420804,3.399954 1.2925449,0 2.6131885,-0.561976 1.3487424,-0.533877 2.4726944,-1.433038 1.1520509,-0.899162 1.8545209,-1.995015 0.70247001,-1.123952 0.70247001,-2.219805 0,-1.152051 -0.81486521,-2.079312 -0.8148652,-0.92726 -1.9950149,-1.320643 0,0 -0.421482,-0.0562 -0.421482,-0.0562 -1.2925448,-0.168593 -1.3206436,-0.168593 -1.3206436,-0.533877 0,-0.252889 0.3090868,-0.449581 0.3371856,-0.196691 0.6743712,-0.196691 0.2528892,0 0.5900748,0.112395 0.3371856,0.112395 0.5900748,0.22479 0.280988,0.0843 0.280988,0.0843 0.2247904,0.0281 0.5057784,0.0562 0.280988,0 0.5619761,0 1.8545208,0 3.37185603,-0.590075 1.46113767,-0.590074 2.13550887,-1.62973 0.6743712,-1.039656 0.6743712,-2.416497 0,-1.40494 -0.8991616,-2.219805 Q 1.4663605,-30.49208 0.00522282,-30.829266 -1.427816,-31.19455 -3.113744,-31.19455 q -3.2875597,0 -6.2660326,0.955359 -2.9503744,0.955359 -5.1139814,3.175164 -1.65783,1.714027 -1.65783,2.866078 0,0.814865 0.421482,1.376841 0.112396,0.140494 0.25289,0.280988 0.140494,0.140494 0.337185,0.280988 0.140494,0.0843 -0.168593,0.0843 -1.742125,-0.393384 -1.742125,-2.332201 0,-1.938817 1.966916,-3.652844 1.517335,-1.320644 3.456152,-2.135509 1.9669164,-0.814865 4.130524,-1.180149 2.1917065,-0.365285 4.3272153,-0.365285 1.5173353,0 2.92227532,0.224791 1.40494008,0.22479 2.52889208,0.758667 1.123952,0.505779 1.7702244,1.348743 0.6743712,0.842964 0.6743712,2.079311 0,1.742126 -0.9272604,2.781781 -0.9272604,1.039656 -2.5007932,1.601632 -1.85452089,0.646272 -3.9900297,0.674371 1.1801496,0.0562 2.05121241,0.618174 0.89916162,0.561976 1.37684123,1.461137 0.50577846,0.899162 0.50577846,1.966916 0,1.433039 -0.87106287,2.669386 -0.84296402,1.208249 -2.27600283,2.10741 -1.4330389,0.871063 -3.1470657,1.348743 -1.7140268,0.505778 -3.4280537,0.505778 z m -9.806481,-1.264446 q 0.899161,0 3.456152,-2.556991 l -0.0843,-0.112395 q -1.123952,-3.73714 -1.798324,-3.73714 -0.0281,0 -0.140494,0.0562 -2.079311,3.006572 -2.079311,4.832994 0,0.393383 0.140494,0.955359 0.168593,0.561976 0.505779,0.561976 z"
           id="path10591" />
        <path
           d="m 3.8266662,-12.958433 q -0.70247,0 -1.0958533,-0.646272 -0.3933832,-0.674371 -0.3933832,-1.292545 0,-1.685928 2.4445957,-4.720598 2.4726944,-3.06277 3.9900297,-3.06277 1.4330389,0 1.4330389,1.517335 0,0.224791 -0.0562,0.47768 -0.0281,0.252889 -0.0843,0.533877 0.0562,0.0843 0.280988,0.0843 0.758668,0 1.798323,-0.533877 -0.0281,0.477679 -2.2198051,1.376841 0.3090871,0.92726 -1.8545208,3.540449 -2.2198053,2.725583 -3.7933381,2.725583 z m 0.5057784,-0.842964 q 1.2082484,0 3.0908681,-2.219805 1.826422,-2.163608 1.826422,-3.118967 -0.4495808,-0.252889 -1.123952,-1.292545 -0.9553593,0 -2.7536825,2.304102 -1.7702244,2.247904 -1.7140268,3.456152 0.028099,0.871063 0.6743712,0.871063 z"
           id="path10593" />
        <path
           d="m 17.679379,-12.958433 q -0.758667,0 -1.067754,-0.421482 -0.309087,-0.449581 -0.309087,-1.095853 0,-1.62973 1.123952,-3.484251 l 1.798323,-2.922276 q -1.910718,1.404941 -3.793338,3.512351 -0.505778,0.561976 -1.152051,1.320643 -0.618173,0.758668 -1.376841,1.742126 -1.011557,1.320643 -1.208248,1.320643 -0.393384,0 -0.646273,-0.337185 -0.252889,-0.365285 -0.252889,-0.646273 0,-0.22479 0.140494,-0.814865 0.140494,-0.618173 0.337186,-1.067754 0.196691,-0.47768 0.393383,-0.927261 0.22479,-0.477679 0.421482,-0.92726 l -1.685928,1.770224 q -0.0562,0.0562 -0.337186,0.337186 -0.2809879,0.280988 -0.4495807,0.280988 -0.140494,0 -0.140494,-0.196692 0,-0.0562 0.056198,-0.140494 0.028099,-0.112395 0.1685928,-0.252889 0.4214819,-0.421482 0.8710629,-0.899161 0.44958,-0.47768 0.92726,-1.095854 0.252889,-0.309086 0.758668,-0.92726 0.505778,-0.646272 1.095853,-1.376841 0.618173,-0.730569 1.152051,-1.348743 0.140494,-0.196691 0.309086,-0.252889 0.168593,-0.0843 0.224791,-0.0843 0.758667,0 0.758667,0.590074 0,0.168593 -0.0843,0.337186 -2.528892,3.484251 -3.03467,5.310673 3.25946,-3.25946 5.226377,-4.889191 1.995014,-1.657829 2.837978,-1.657829 0.449581,0 0.674372,0.140494 0.252889,0.140494 0.252889,0.533877 0,0.140494 -0.0281,0.22479 -0.0843,0.196692 -1.152051,1.573533 -0.646272,0.786767 -1.152051,1.433039 -0.477679,0.646273 -0.786766,1.123952 -0.505778,0.786767 -0.758668,1.489237 -0.252889,0.674371 -0.252889,1.15205 0,0.196692 0.0562,0.47768 0.0562,0.280988 0.337185,0.280988 0.646273,0 2.023114,-1.123952 0.646272,-0.561976 1.208248,-1.123952 0.561976,-0.590075 1.067755,-1.152051 0.112395,-0.112395 0.365284,-0.421482 0.252889,-0.337185 0.309087,-0.337185 0.112395,0 0.112395,0.22479 0,0.112395 -0.140494,0.393383 -0.112395,0.252889 -0.252889,0.393383 -0.309087,0.365285 -0.92726,1.011557 -0.590075,0.646273 -1.348743,1.320644 -0.730569,0.674371 -1.433039,1.152051 -0.70247,0.477679 -1.236347,0.477679 z"
           id="path10595" />
        <path
           d="m 36.730362,-11.019615 q -0.140494,0 -0.140494,-0.280988 0,-0.927261 1.573532,-4.720599 0.47768,-1.095853 0.95536,-2.191706 0.477679,-1.095854 0.92726,-2.191707 l 1.292545,-3.793338 q 0.309087,-0.955359 0.47768,-1.62973 0.196691,-0.70247 0.196691,-1.152051 0,-1.966916 -1.123952,-2.950374 -1.123952,-1.011557 -2.978473,-1.011557 -1.742125,0 -3.456152,0.786766 -1.685928,0.758668 -3.090868,2.079312 -1.376842,1.320643 -2.219806,2.950374 -1.208248,2.304101 -1.208248,4.21482 0,1.320643 0.646272,2.388398 0.646273,1.067754 1.685928,1.461137 0.730569,0.25289 1.433039,0.25289 0.983458,0 1.826422,-0.421482 0.842964,-0.449581 1.348743,-1.236348 0.533877,-0.786766 0.533877,-1.770224 0,-0.112395 0,-0.22479 0,-0.140494 -0.0281,-0.25289 -0.112395,-0.337185 0.168593,-0.337185 0.309087,0 0.337186,0.449581 0.0281,0.112395 0.0281,0.22479 0.0281,0.112395 0.0281,0.252889 0,1.011557 -0.674371,1.88262 -0.674371,0.871063 -1.742126,1.433039 -1.039655,0.533877 -2.163607,0.533877 -1.152051,0 -2.219806,-0.561976 -2.276002,-1.236347 -2.276002,-4.299117 0,-2.191706 1.180149,-4.242919 1.067755,-1.85452 2.781782,-3.231362 1.714026,-1.376841 3.765239,-2.135509 2.051212,-0.786766 4.074326,-0.786766 1.40494,0 2.528892,0.449581 1.123952,0.421482 1.770224,1.320643 0.674372,0.871063 0.674372,2.247905 0,2.613188 -2.3603,7.839565 -2.697485,5.928847 -2.697485,6.659416 0,0.196691 0.140494,0.140494 0.730569,-0.47768 6.603219,-7.530479 3.006571,-3.596646 5.085883,-5.816452 2.10741,-2.247904 3.315658,-3.118967 1.067754,-0.814865 1.854521,-1.320643 0.786766,-0.533877 1.264446,-0.814865 1.742126,-0.95536 3.203263,-0.95536 0.646273,0 0.983458,0.140494 0.365285,0.112396 0.365285,0.674372 0,0.365284 -0.25289,0.365284 -0.0843,0 -0.393383,-0.112395 -0.309087,-0.140494 -0.618173,-0.140494 -1.489237,0 -3.118967,0.871063 -3.259461,1.742125 -7.474281,6.237933 -1.208249,1.292545 -2.837979,3.203264 -1.601632,1.910718 -3.624745,4.467709 -3.203264,4.046227 -3.849536,4.411512 -1.208249,0.70247 -1.826422,0.983458 -0.590075,0.309087 -0.674371,0.309087 z"
           id="path10597" />
        <path
           d="m 47.997992,-12.958433 q -0.70247,0 -1.095853,-0.646272 -0.393384,-0.674371 -0.393384,-1.292545 0,-1.685928 2.444596,-4.720598 2.472695,-3.06277 3.99003,-3.06277 1.433039,0 1.433039,1.517335 0,0.224791 -0.0562,0.47768 -0.0281,0.252889 -0.0843,0.533877 0.0562,0.0843 0.280988,0.0843 0.758667,0 1.798323,-0.533877 -0.0281,0.477679 -2.219805,1.376841 0.309086,0.92726 -1.854521,3.540449 -2.219806,2.725583 -3.793338,2.725583 z m 0.505778,-0.842964 q 1.208249,0 3.090868,-2.219805 1.826422,-2.163608 1.826422,-3.118967 -0.44958,-0.252889 -1.123952,-1.292545 -0.955359,0 -2.753682,2.304102 -1.770225,2.247904 -1.714027,3.456152 0.0281,0.871063 0.674371,0.871063 z"
           id="path10599" />
        <path
           d="m 55.331783,-7.2543762 q -0.899162,0 -1.573533,-0.7586676 -0.674371,-0.7867664 -0.646272,-1.7421256 0.337185,0.421482 0.899161,0.983458 0.730569,0.70247 1.433039,0.70247 1.601632,0 3.456153,-2.5569906 0.646272,-0.899162 1.320643,-2.10741 0.70247,-1.18015 1.320644,-2.641288 l 1.067754,-2.585089 -4.130523,3.231362 q -1.910719,1.489236 -3.06277,1.489236 -0.618173,0 -0.983458,-0.449581 -0.365284,-0.44958 -0.365284,-0.92726 0,-1.208248 2.079311,-3.961931 2.079312,-2.781781 3.118967,-2.781781 0.871063,0 0.871063,0.646272 0,0.25289 -2.500793,2.922276 -2.472695,2.641287 -2.472695,3.568547 0,0.365285 0.47768,0.365285 0.899161,0 3.905733,-2.332201 1.236347,-0.983458 2.191707,-1.798323 0.955359,-0.814865 1.601631,-1.461138 0.224791,-0.280988 0.449581,-0.533877 0.22479,-0.280988 0.421482,-0.561976 0.533877,-0.618174 1.067754,-0.618174 0.758668,0 0.758668,0.618174 0,0.112395 -1.18015,1.854521 -0.618173,0.955359 -0.983458,1.489236 -0.365284,0.505779 -0.421482,0.646273 -0.871062,1.685928 -2.669386,4.91729 -2.725583,4.3834128 -5.451167,4.3834128 z"
           id="path10601" />
        <path
           d="m 66.964714,-12.874136 q -0.674371,0 -1.348743,-0.47768 -0.674371,-0.47768 -0.758667,-1.123952 -0.280988,-2.163608 2.725583,-5.14208 2.978473,-2.978473 5.366871,-2.978473 0.646273,0 1.011557,0.309086 0.196692,0.196692 0.280988,0.533878 0.112395,0.337185 0.168593,0.337185 0.112395,0 0.196692,-0.0281 0.0843,-0.0562 0.196691,-0.0562 0.337186,0 0.590075,0.252889 0.252889,0.252889 0.280988,0.449581 0.0281,0.0562 -1.798323,2.781781 -1.826422,2.669386 -1.657829,3.624745 0.140494,0.646273 0.618173,0.646273 1.461138,0 5.338772,-4.832994 0.0843,-0.112395 0.168593,-0.112395 0.140494,0 0.140494,0.196692 0,0.22479 -0.252889,0.561976 -3.568548,4.804894 -5.479266,4.804894 -0.252889,0 -0.47768,-0.0843 -1.236347,-0.47768 -1.236347,-1.854521 0,-0.477679 0.112395,-0.955359 l -1.742126,1.685928 q -0.786766,0.786766 -1.433038,1.123952 -0.618174,0.337186 -1.011557,0.337186 z m -0.252889,-0.618174 q 1.62973,0 4.43961,-3.568548 l 2.978473,-4.102425 q -0.22479,-0.393383 -0.730569,-0.393383 -1.714027,0 -4.636302,2.753683 -3.03467,2.80988 -2.725584,4.636302 0.140494,0.674371 0.674372,0.674371 z"
           id="path10603" />
        <path
           d="m 76.349729,-7.2543762 q -0.842964,0 -1.433039,-0.70247 -0.590075,-0.70247 -0.618174,-1.5173352 0.0843,-0.3371856 0.252889,-0.3371856 0.168593,0 0.196692,0.421482 0.0281,0.4495808 0.449581,0.8710628 0.421482,0.421482 0.814865,0.421482 1.62973,0 3.428054,-2.1074098 0.646272,-0.758668 1.320643,-1.798323 0.70247,-1.011557 1.348743,-2.304102 l 1.40494,-2.781781 -2.10741,2.135508 q -0.983458,0.983458 -1.714027,1.461138 -0.70247,0.47768 -1.095853,0.47768 -0.674372,0 -1.348743,-0.47768 -0.674371,-0.505778 -0.758667,-1.152051 -0.280988,-2.163607 2.725583,-5.14208 3.006572,-2.950374 5.366871,-2.950374 0.646273,0 1.011557,0.309086 0.196692,0.168593 0.280988,0.505779 0.112395,0.337185 0.168593,0.337185 0.112395,0 0.196691,-0.0281 0.0843,-0.0562 0.196692,-0.0562 0.365284,0 0.590075,0.252889 0.252889,0.252889 0.168593,0.505779 -0.0281,0.252889 -0.814866,1.517335 -0.505778,0.842964 -1.15205,2.051212 -0.646273,1.18015 -1.376842,2.472695 -0.70247,1.264446 -1.376841,2.360299 -0.674371,1.123952 -1.208248,1.826422 -2.58509,3.4280538 -4.91729,3.4280538 z m 1.995014,-6.4065268 q 1.629731,0 4.439611,-3.568547 l 2.978473,-4.102425 q -0.168593,-0.393384 -0.70247,-0.393384 -1.742126,0 -4.664401,2.753683 -3.034671,2.866078 -2.725584,4.636302 0.140494,0.674371 0.674371,0.674371 z"
           id="path10605" />
        <path
           d="m 88.488438,-12.649346 q -0.899162,0 -1.629731,-0.561976 -0.730568,-0.590075 -0.730568,-1.545434 0,-1.995015 2.444595,-4.552006 2.500793,-2.585089 4.467709,-2.585089 0.646273,0 1.039656,0.365284 0.421482,0.337186 0.421482,0.842964 0,1.573533 -2.500793,3.090868 -2.219805,1.348743 -3.737141,1.348743 -0.22479,0 -0.393383,-0.0562 -0.421482,0.758668 -0.421482,1.601632 0,1.461137 1.376841,1.461137 1.40494,0 3.624746,-1.882619 1.714027,-1.376842 2.922275,-2.922276 0.252889,-0.337185 0.449581,-0.337185 0.168593,0 0.168593,0.168593 0,0.168592 -0.224791,0.477679 -0.786766,1.039656 -1.685928,1.910719 -0.899162,0.871062 -1.938817,1.601631 -2.163608,1.573533 -3.652844,1.573533 z m 0.168593,-4.21482 q 1.067754,0 2.781781,-1.067754 0.561976,-0.393384 1.095853,-0.871063 0.561976,-0.505779 0.899162,-1.011557 0.365284,-0.505778 0.365284,-0.899162 0,-0.365284 -0.590075,-0.365284 -0.842964,0 -2.360299,1.264446 -0.730569,0.618174 -1.40494,1.348742 -0.674371,0.730569 -1.152051,1.545434 0.168593,0.0562 0.365285,0.0562 z"
           id="path10607" />
      </g>
      <g
         aria-label="Bon Voyage"
         id="text360-5"
         style="font-size:28.0988px;font-family:'Alex Brush';-inkscape-font-specification:'Alex Brush, Normal';stroke:#000000;stroke-width:1.32292;stroke-linecap:round;stroke-linejoin:bevel">
        <path
           d="m -8.4806131,-13.752652 q -4.4396109,0 -6.0412419,-3.03467 -2.894177,2.416496 -4.130524,2.416496 -0.590075,0 -0.92726,-0.561976 -0.309087,-0.561976 -0.309087,-1.264446 0,-1.685928 1.292545,-3.933832 0.561976,-0.983458 1.236347,-1.798323 0.674371,-0.814865 1.517335,-0.814865 0.814865,0 1.236347,1.348742 l 0.842964,2.697485 q 0.449581,-0.477679 0.983458,-1.152051 0.561976,-0.70247 1.236348,-1.62973 l 2.5007929,-3.371856 q 4.6082033,-5.985045 6.0412422,-6.547021 0.5057784,-0.196691 1.0115568,-0.196691 0.561976,0 0.8991616,0.252889 0.36528441,0.22479 0.36528441,0.533877 0,0.505778 -0.81486521,0.590075 -0.842964,0.477679 -3.2875597,2.837979 -1.123952,1.095853 -1.826422,1.826422 -0.6743712,0.70247 -0.9272604,1.067754 -3.1470656,4.383413 -5.8164516,6.743712 1.714027,3.399955 5.1420803,3.399955 1.2925449,0 2.6131885,-0.561976 1.3487424,-0.533877 2.4726945,-1.433039 1.1520508,-0.899161 1.8545208,-1.995014 0.70247002,-1.123952 0.70247002,-2.219806 0,-1.152051 -0.81486522,-2.079311 -0.8148652,-0.92726 -1.9950148,-1.320644 0,0 -0.4214821,-0.0562 -0.421482,-0.0562 -1.2925448,-0.168593 -1.3206436,-0.168593 -1.3206436,-0.533877 0,-0.252889 0.3090868,-0.449581 0.3371856,-0.196692 0.6743712,-0.196692 0.2528892,0 0.5900748,0.112396 0.3371856,0.112395 0.5900748,0.22479 0.280988,0.0843 0.280988,0.0843 0.2247904,0.0281 0.5057784,0.0562 0.2809881,0 0.5619761,0 1.8545208,0 3.37185604,-0.590075 1.46113766,-0.590075 2.13550886,-1.62973 0.6743712,-1.039656 0.6743712,-2.416497 0,-1.40494 -0.8991616,-2.219805 -0.8710628,-0.814866 -2.33220047,-1.152051 -1.43303883,-0.365285 -3.11896683,-0.365285 -3.2875597,0 -6.2660326,0.95536 -2.9503743,0.955359 -5.1139813,3.175164 -1.65783,1.714027 -1.65783,2.866078 0,0.814865 0.421482,1.376841 0.112396,0.140494 0.25289,0.280988 0.140494,0.140494 0.337185,0.280988 0.140494,0.0843 -0.168593,0.0843 -1.742125,-0.393383 -1.742125,-2.3322 0,-1.938817 1.966916,-3.652844 1.517335,-1.320644 3.456152,-2.135509 1.9669163,-0.814865 4.130524,-1.18015 2.1917064,-0.365284 4.3272153,-0.365284 1.5173352,0 2.92227523,0.22479 1.40494007,0.224791 2.52889207,0.758668 1.123952,0.505778 1.7702244,1.348742 0.6743712,0.842964 0.6743712,2.079312 0,1.742125 -0.9272604,2.781781 -0.9272604,1.039656 -2.5007932,1.601632 -1.85452088,0.646272 -3.9900297,0.674371 1.1801496,0.0562 2.05121242,0.618173 0.89916162,0.561976 1.37684123,1.461138 0.50577845,0.899162 0.50577845,1.966916 0,1.433039 -0.87106286,2.669386 -0.84296402,1.208249 -2.27600284,2.10741 -1.4330388,0.871063 -3.1470657,1.348743 -1.7140268,0.505778 -3.4280537,0.505778 z m -9.8064809,-1.264446 q 0.899161,0 3.456152,-2.556991 l -0.0843,-0.112395 q -1.123952,-3.737141 -1.798324,-3.737141 -0.0281,0 -0.140494,0.0562 -2.079311,3.006572 -2.079311,4.832994 0,0.393383 0.140494,0.955359 0.168593,0.561976 0.505779,0.561976 z"
           id="path10610" />
        <path
           d="m 3.8266681,-15.017098 q -0.70247,0 -1.0958533,-0.646272 -0.3933832,-0.674372 -0.3933832,-1.292545 0,-1.685928 2.4445957,-4.720599 2.4726945,-3.062769 3.9900297,-3.062769 1.433039,0 1.433039,1.517335 0,0.224791 -0.0562,0.47768 -0.0281,0.252889 -0.0843,0.533877 0.0562,0.0843 0.280988,0.0843 0.758667,0 1.798323,-0.533877 -0.0281,0.47768 -2.2198052,1.376841 0.3090872,0.927261 -1.8545208,3.540449 -2.2198053,2.725584 -3.7933381,2.725584 z m 0.5057784,-0.842964 q 1.2082484,0 3.0908681,-2.219805 1.826422,-2.163608 1.826422,-3.118967 -0.4495808,-0.252889 -1.123952,-1.292545 -0.9553592,0 -2.7536825,2.304102 -1.7702244,2.247904 -1.7140268,3.456152 0.028099,0.871063 0.6743712,0.871063 z"
           id="path10612" />
        <path
           d="m 17.679381,-15.017098 q -0.758668,0 -1.067754,-0.421482 -0.309087,-0.449581 -0.309087,-1.095853 0,-1.629731 1.123952,-3.484252 l 1.798323,-2.922275 q -1.910718,1.40494 -3.793338,3.51235 -0.505778,0.561976 -1.152051,1.320644 -0.618173,0.758668 -1.376841,1.742126 -1.011557,1.320643 -1.208249,1.320643 -0.393383,0 -0.646272,-0.337185 -0.252889,-0.365285 -0.252889,-0.646273 0,-0.22479 0.140494,-0.814865 0.140494,-0.618174 0.337185,-1.067754 0.196692,-0.47768 0.393384,-0.927261 0.22479,-0.477679 0.421482,-0.92726 l -1.685928,1.770224 q -0.0562,0.0562 -0.337186,0.337186 -0.280988,0.280988 -0.4495808,0.280988 -0.140494,0 -0.140494,-0.196692 0,-0.0562 0.056198,-0.140494 0.028099,-0.112395 0.1685928,-0.252889 0.421482,-0.421482 0.871062,-0.899162 0.449581,-0.477679 0.927261,-1.095853 0.252889,-0.309087 0.758668,-0.92726 0.505778,-0.646273 1.095853,-1.376842 0.618173,-0.730568 1.152051,-1.348742 0.140494,-0.196692 0.309086,-0.252889 0.168593,-0.0843 0.224791,-0.0843 0.758667,0 0.758667,0.590075 0,0.168593 -0.0843,0.337186 -2.528892,3.484251 -3.03467,5.310673 3.25946,-3.259461 5.226376,-4.889191 1.995015,-1.657829 2.837979,-1.657829 0.449581,0 0.674372,0.140494 0.252889,0.140494 0.252889,0.533877 0,0.140494 -0.0281,0.22479 -0.0843,0.196692 -1.152051,1.573533 -0.646272,0.786766 -1.152051,1.433039 -0.477679,0.646272 -0.786766,1.123952 -0.505779,0.786766 -0.758668,1.489236 -0.252889,0.674372 -0.252889,1.152051 0,0.196692 0.0562,0.47768 0.0562,0.280988 0.337185,0.280988 0.646273,0 2.023114,-1.123952 0.646272,-0.561976 1.208248,-1.123952 0.561976,-0.590075 1.067755,-1.152051 0.112395,-0.112395 0.365284,-0.421482 0.252889,-0.337186 0.309087,-0.337186 0.112395,0 0.112395,0.224791 0,0.112395 -0.140494,0.393383 -0.112395,0.252889 -0.252889,0.393383 -0.309087,0.365285 -0.92726,1.011557 -0.590075,0.646272 -1.348743,1.320644 -0.730569,0.674371 -1.433039,1.15205 -0.70247,0.47768 -1.236347,0.47768 z"
           id="path10614" />
        <path
           d="m 36.730364,-13.078281 q -0.140494,0 -0.140494,-0.280988 0,-0.92726 1.573532,-4.720598 0.47768,-1.095853 0.95536,-2.191707 0.477679,-1.095853 0.92726,-2.191706 l 1.292545,-3.793338 q 0.309087,-0.955359 0.477679,-1.629731 0.196692,-0.70247 0.196692,-1.152051 0,-1.966916 -1.123952,-2.950374 -1.123952,-1.011556 -2.978473,-1.011556 -1.742125,0 -3.456152,0.786766 -1.685928,0.758668 -3.090868,2.079311 -1.376842,1.320644 -2.219806,2.950374 -1.208248,2.304102 -1.208248,4.21482 0,1.320644 0.646272,2.388398 0.646273,1.067755 1.685928,1.461138 0.730569,0.252889 1.433039,0.252889 0.983458,0 1.826422,-0.421482 0.842964,-0.449581 1.348743,-1.236347 0.533877,-0.786766 0.533877,-1.770224 0,-0.112396 0,-0.224791 0,-0.140494 -0.0281,-0.252889 -0.112395,-0.337186 0.168593,-0.337186 0.309087,0 0.337186,0.449581 0.0281,0.112395 0.0281,0.224791 0.0281,0.112395 0.0281,0.252889 0,1.011557 -0.674371,1.882619 -0.674371,0.871063 -1.742126,1.433039 -1.039655,0.533878 -2.163607,0.533878 -1.152051,0 -2.219806,-0.561976 -2.276002,-1.236348 -2.276002,-4.299117 0,-2.191706 1.180149,-4.242919 1.067755,-1.854521 2.781781,-3.231362 1.714027,-1.376841 3.76524,-2.135509 2.051212,-0.786766 4.074326,-0.786766 1.40494,0 2.528892,0.449581 1.123952,0.421482 1.770224,1.320643 0.674372,0.871063 0.674372,2.247904 0,2.613189 -2.3603,7.839566 -2.697485,5.928847 -2.697485,6.659415 0,0.196692 0.140494,0.140494 0.730569,-0.477679 6.603219,-7.530478 3.006571,-3.596647 5.085882,-5.816452 2.107411,-2.247904 3.315659,-3.118967 1.067754,-0.814865 1.854521,-1.320643 0.786766,-0.533878 1.264446,-0.814866 1.742125,-0.955359 3.203263,-0.955359 0.646273,0 0.983458,0.140494 0.365285,0.112395 0.365285,0.674371 0,0.365285 -0.25289,0.365285 -0.0843,0 -0.393383,-0.112395 -0.309087,-0.140494 -0.618173,-0.140494 -1.489237,0 -3.118967,0.871062 -3.259461,1.742126 -7.474281,6.237934 -1.208249,1.292545 -2.837979,3.203263 -1.601632,1.910719 -3.624745,4.46771 -3.203264,4.046227 -3.849536,4.411511 -1.208249,0.70247 -1.826422,0.983458 -0.590075,0.309087 -0.674371,0.309087 z"
           id="path10616" />
        <path
           d="m 47.997994,-15.017098 q -0.70247,0 -1.095853,-0.646272 -0.393384,-0.674372 -0.393384,-1.292545 0,-1.685928 2.444596,-4.720599 2.472694,-3.062769 3.99003,-3.062769 1.433039,0 1.433039,1.517335 0,0.224791 -0.0562,0.47768 -0.0281,0.252889 -0.0843,0.533877 0.0562,0.0843 0.280988,0.0843 0.758667,0 1.798323,-0.533877 -0.0281,0.47768 -2.219805,1.376841 0.309086,0.927261 -1.854521,3.540449 -2.219806,2.725584 -3.793338,2.725584 z m 0.505778,-0.842964 q 1.208249,0 3.090868,-2.219805 1.826422,-2.163608 1.826422,-3.118967 -0.449581,-0.252889 -1.123952,-1.292545 -0.955359,0 -2.753682,2.304102 -1.770225,2.247904 -1.714027,3.456152 0.0281,0.871063 0.674371,0.871063 z"
           id="path10618" />
        <path
           d="m 55.331785,-9.3130415 q -0.899162,0 -1.573533,-0.7586675 -0.674371,-0.786766 -0.646272,-1.742126 0.337185,0.421482 0.899161,0.983458 0.730569,0.70247 1.433039,0.70247 1.601632,0 3.456153,-2.556991 0.646272,-0.899161 1.320643,-2.10741 0.70247,-1.180149 1.320644,-2.641287 l 1.067754,-2.58509 -4.130523,3.231363 q -1.910719,1.489236 -3.06277,1.489236 -0.618173,0 -0.983458,-0.449581 -0.365284,-0.449581 -0.365284,-0.92726 0,-1.208249 2.079311,-3.961931 2.079311,-2.781781 3.118967,-2.781781 0.871063,0 0.871063,0.646272 0,0.252889 -2.500793,2.922275 -2.472695,2.641288 -2.472695,3.568548 0,0.365284 0.47768,0.365284 0.899161,0 3.905733,-2.3322 1.236347,-0.983458 2.191707,-1.798323 0.955359,-0.814866 1.601631,-1.461138 0.224791,-0.280988 0.449581,-0.533877 0.22479,-0.280988 0.421482,-0.561976 0.533877,-0.618174 1.067754,-0.618174 0.758668,0 0.758668,0.618174 0,0.112395 -1.18015,1.854521 -0.618173,0.955359 -0.983458,1.489236 -0.365284,0.505779 -0.421482,0.646273 -0.871062,1.685928 -2.669386,4.91729 -2.725583,4.3834125 -5.451167,4.3834125 z"
           id="path10620" />
        <path
           d="m 66.964716,-14.932802 q -0.674371,0 -1.348743,-0.477679 -0.674371,-0.47768 -0.758667,-1.123952 -0.280988,-2.163608 2.725583,-5.142081 2.978473,-2.978473 5.366871,-2.978473 0.646273,0 1.011557,0.309087 0.196692,0.196692 0.280988,0.533877 0.112395,0.337186 0.168593,0.337186 0.112395,0 0.196692,-0.0281 0.0843,-0.0562 0.196691,-0.0562 0.337186,0 0.590075,0.252889 0.252889,0.252889 0.280988,0.449581 0.0281,0.0562 -1.798323,2.781781 -1.826422,2.669386 -1.65783,3.624745 0.140494,0.646273 0.618174,0.646273 1.461138,0 5.338772,-4.832994 0.0843,-0.112395 0.168593,-0.112395 0.140494,0 0.140494,0.196691 0,0.224791 -0.252889,0.561976 -3.568548,4.804895 -5.479266,4.804895 -0.25289,0 -0.47768,-0.0843 -1.236347,-0.47768 -1.236347,-1.854521 0,-0.47768 0.112395,-0.955359 l -1.742126,1.685928 q -0.786766,0.786766 -1.433038,1.123952 -0.618174,0.337185 -1.011557,0.337185 z m -0.252889,-0.618173 q 1.62973,0 4.43961,-3.568548 l 2.978473,-4.102425 q -0.22479,-0.393383 -0.730569,-0.393383 -1.714027,0 -4.636302,2.753682 -3.03467,2.809881 -2.725584,4.636303 0.140494,0.674371 0.674372,0.674371 z"
           id="path10622" />
        <path
           d="m 76.34973,-9.3130415 q -0.842964,0 -1.433038,-0.7024695 -0.590075,-0.70247 -0.618174,-1.517336 0.0843,-0.337185 0.252889,-0.337185 0.168593,0 0.196692,0.421482 0.0281,0.449581 0.449581,0.871063 0.421482,0.421482 0.814865,0.421482 1.62973,0 3.428054,-2.107411 0.646272,-0.758667 1.320643,-1.798323 0.70247,-1.011557 1.348743,-2.304101 l 1.40494,-2.781782 -2.10741,2.135509 q -0.983458,0.983458 -1.714027,1.461138 -0.70247,0.477679 -1.095853,0.477679 -0.674372,0 -1.348743,-0.477679 -0.674371,-0.505779 -0.758668,-1.152051 -0.280988,-2.163608 2.725584,-5.142081 3.006572,-2.950374 5.366871,-2.950374 0.646272,0 1.011557,0.309087 0.196692,0.168593 0.280988,0.505779 0.112395,0.337185 0.168593,0.337185 0.112395,0 0.196691,-0.0281 0.0843,-0.0562 0.196692,-0.0562 0.365284,0 0.590075,0.252889 0.252889,0.252889 0.168593,0.505778 -0.0281,0.25289 -0.814866,1.517336 -0.505778,0.842964 -1.152051,2.051212 -0.646272,1.18015 -1.376841,2.472695 -0.70247,1.264446 -1.376841,2.360299 -0.674371,1.123952 -1.208248,1.826422 -2.58509,3.4280535 -4.917291,3.4280535 z m 1.995015,-6.4065265 q 1.629731,0 4.439611,-3.568548 l 2.978473,-4.102425 q -0.168593,-0.393383 -0.70247,-0.393383 -1.742126,0 -4.664401,2.753683 -3.034671,2.866077 -2.725584,4.636302 0.140494,0.674371 0.674371,0.674371 z"
           id="path10624" />
        <path
           d="m 88.48844,-14.708011 q -0.899162,0 -1.629731,-0.561976 -0.730569,-0.590075 -0.730569,-1.545434 0,-1.995015 2.444596,-4.552006 2.500793,-2.58509 4.467709,-2.58509 0.646273,0 1.039656,0.365285 0.421482,0.337185 0.421482,0.842964 0,1.573533 -2.500793,3.090868 -2.219805,1.348742 -3.737141,1.348742 -0.22479,0 -0.393383,-0.0562 -0.421482,0.758667 -0.421482,1.601631 0,1.461138 1.376841,1.461138 1.40494,0 3.624746,-1.88262 1.714026,-1.376841 2.922275,-2.922275 0.252889,-0.337186 0.449581,-0.337186 0.168592,0 0.168592,0.168593 0,0.168593 -0.22479,0.47768 -0.786766,1.039656 -1.685928,1.910718 -0.899162,0.871063 -1.938817,1.601632 -2.163608,1.573533 -3.652844,1.573533 z m 0.168592,-4.21482 q 1.067755,0 2.781782,-1.067755 0.561976,-0.393383 1.095853,-0.871063 0.561976,-0.505778 0.899162,-1.011556 0.365284,-0.505779 0.365284,-0.899162 0,-0.365284 -0.590075,-0.365284 -0.842964,0 -2.360299,1.264446 -0.730569,0.618173 -1.40494,1.348742 -0.674371,0.730569 -1.152051,1.545434 0.168593,0.0562 0.365284,0.0562 z"
           id="path10626" />
      </g>
      <g
         aria-label="Bon Voyage"
         id="text360"
         style="font-size:28.0988px;font-family:'Alex Brush';-inkscape-font-specification:'Alex Brush, Normal';fill:#ffffff;stroke-width:0.529167;stroke-linecap:round;stroke-linejoin:bevel">
        <path
           d="m -8.4806131,-13.752652 q -4.4396109,0 -6.0412419,-3.03467 -2.894177,2.416496 -4.130524,2.416496 -0.590075,0 -0.92726,-0.561976 -0.309087,-0.561976 -0.309087,-1.264446 0,-1.685928 1.292545,-3.933832 0.561976,-0.983458 1.236347,-1.798323 0.674371,-0.814865 1.517335,-0.814865 0.814865,0 1.236347,1.348742 l 0.842964,2.697485 q 0.449581,-0.477679 0.983458,-1.152051 0.561976,-0.70247 1.236348,-1.62973 l 2.5007929,-3.371856 q 4.6082033,-5.985045 6.0412422,-6.547021 0.5057784,-0.196691 1.0115568,-0.196691 0.561976,0 0.8991616,0.252889 0.36528441,0.22479 0.36528441,0.533877 0,0.505778 -0.81486521,0.590075 -0.842964,0.477679 -3.2875597,2.837979 -1.123952,1.095853 -1.826422,1.826422 -0.6743712,0.70247 -0.9272604,1.067754 -3.1470656,4.383413 -5.8164516,6.743712 1.714027,3.399955 5.1420803,3.399955 1.2925449,0 2.6131885,-0.561976 1.3487424,-0.533877 2.4726945,-1.433039 1.1520508,-0.899161 1.8545208,-1.995014 0.70247002,-1.123952 0.70247002,-2.219806 0,-1.152051 -0.81486522,-2.079311 -0.8148652,-0.92726 -1.9950148,-1.320644 0,0 -0.4214821,-0.0562 -0.421482,-0.0562 -1.2925448,-0.168593 -1.3206436,-0.168593 -1.3206436,-0.533877 0,-0.252889 0.3090868,-0.449581 0.3371856,-0.196692 0.6743712,-0.196692 0.2528892,0 0.5900748,0.112396 0.3371856,0.112395 0.5900748,0.22479 0.280988,0.0843 0.280988,0.0843 0.2247904,0.0281 0.5057784,0.0562 0.2809881,0 0.5619761,0 1.8545208,0 3.37185604,-0.590075 1.46113766,-0.590075 2.13550886,-1.62973 0.6743712,-1.039656 0.6743712,-2.416497 0,-1.40494 -0.8991616,-2.219805 -0.8710628,-0.814866 -2.33220047,-1.152051 -1.43303883,-0.365285 -3.11896683,-0.365285 -3.2875597,0 -6.2660326,0.95536 -2.9503743,0.955359 -5.1139813,3.175164 -1.65783,1.714027 -1.65783,2.866078 0,0.814865 0.421482,1.376841 0.112396,0.140494 0.25289,0.280988 0.140494,0.140494 0.337185,0.280988 0.140494,0.0843 -0.168593,0.0843 -1.742125,-0.393383 -1.742125,-2.3322 0,-1.938817 1.966916,-3.652844 1.517335,-1.320644 3.456152,-2.135509 1.9669163,-0.814865 4.130524,-1.18015 2.1917064,-0.365284 4.3272153,-0.365284 1.5173352,0 2.92227523,0.22479 1.40494007,0.224791 2.52889207,0.758668 1.123952,0.505778 1.7702244,1.348742 0.6743712,0.842964 0.6743712,2.079312 0,1.742125 -0.9272604,2.781781 -0.9272604,1.039656 -2.5007932,1.601632 -1.85452088,0.646272 -3.9900297,0.674371 1.1801496,0.0562 2.05121242,0.618173 0.89916162,0.561976 1.37684123,1.461138 0.50577845,0.899162 0.50577845,1.966916 0,1.433039 -0.87106286,2.669386 -0.84296402,1.208249 -2.27600284,2.10741 -1.4330388,0.871063 -3.1470657,1.348743 -1.7140268,0.505778 -3.4280537,0.505778 z m -9.8064809,-1.264446 q 0.899161,0 3.456152,-2.556991 l -0.0843,-0.112395 q -1.123952,-3.737141 -1.798324,-3.737141 -0.0281,0 -0.140494,0.0562 -2.079311,3.006572 -2.079311,4.832994 0,0.393383 0.140494,0.955359 0.168593,0.561976 0.505779,0.561976 z"
           id="path10629" />
        <path
           d="m 3.8266681,-15.017098 q -0.70247,0 -1.0958533,-0.646272 -0.3933832,-0.674372 -0.3933832,-1.292545 0,-1.685928 2.4445957,-4.720599 2.4726945,-3.062769 3.9900297,-3.062769 1.433039,0 1.433039,1.517335 0,0.224791 -0.0562,0.47768 -0.0281,0.252889 -0.0843,0.533877 0.0562,0.0843 0.280988,0.0843 0.758667,0 1.798323,-0.533877 -0.0281,0.47768 -2.2198052,1.376841 0.3090872,0.927261 -1.8545208,3.540449 -2.2198053,2.725584 -3.7933381,2.725584 z m 0.5057784,-0.842964 q 1.2082484,0 3.0908681,-2.219805 1.826422,-2.163608 1.826422,-3.118967 -0.4495808,-0.252889 -1.123952,-1.292545 -0.9553592,0 -2.7536825,2.304102 -1.7702244,2.247904 -1.7140268,3.456152 0.028099,0.871063 0.6743712,0.871063 z"
           id="path10631" />
        <path
           d="m 17.679381,-15.017098 q -0.758668,0 -1.067754,-0.421482 -0.309087,-0.449581 -0.309087,-1.095853 0,-1.629731 1.123952,-3.484252 l 1.798323,-2.922275 q -1.910718,1.40494 -3.793338,3.51235 -0.505778,0.561976 -1.152051,1.320644 -0.618173,0.758668 -1.376841,1.742126 -1.011557,1.320643 -1.208249,1.320643 -0.393383,0 -0.646272,-0.337185 -0.252889,-0.365285 -0.252889,-0.646273 0,-0.22479 0.140494,-0.814865 0.140494,-0.618174 0.337185,-1.067754 0.196692,-0.47768 0.393384,-0.927261 0.22479,-0.477679 0.421482,-0.92726 l -1.685928,1.770224 q -0.0562,0.0562 -0.337186,0.337186 -0.280988,0.280988 -0.4495808,0.280988 -0.140494,0 -0.140494,-0.196692 0,-0.0562 0.056198,-0.140494 0.028099,-0.112395 0.1685928,-0.252889 0.421482,-0.421482 0.871062,-0.899162 0.449581,-0.477679 0.927261,-1.095853 0.252889,-0.309087 0.758668,-0.92726 0.505778,-0.646273 1.095853,-1.376842 0.618173,-0.730568 1.152051,-1.348742 0.140494,-0.196692 0.309086,-0.252889 0.168593,-0.0843 0.224791,-0.0843 0.758667,0 0.758667,0.590075 0,0.168593 -0.0843,0.337186 -2.528892,3.484251 -3.03467,5.310673 3.25946,-3.259461 5.226376,-4.889191 1.995015,-1.657829 2.837979,-1.657829 0.449581,0 0.674372,0.140494 0.252889,0.140494 0.252889,0.533877 0,0.140494 -0.0281,0.22479 -0.0843,0.196692 -1.152051,1.573533 -0.646272,0.786766 -1.152051,1.433039 -0.477679,0.646272 -0.786766,1.123952 -0.505779,0.786766 -0.758668,1.489236 -0.252889,0.674372 -0.252889,1.152051 0,0.196692 0.0562,0.47768 0.0562,0.280988 0.337185,0.280988 0.646273,0 2.023114,-1.123952 0.646272,-0.561976 1.208248,-1.123952 0.561976,-0.590075 1.067755,-1.152051 0.112395,-0.112395 0.365284,-0.421482 0.252889,-0.337186 0.309087,-0.337186 0.112395,0 0.112395,0.224791 0,0.112395 -0.140494,0.393383 -0.112395,0.252889 -0.252889,0.393383 -0.309087,0.365285 -0.92726,1.011557 -0.590075,0.646272 -1.348743,1.320644 -0.730569,0.674371 -1.433039,1.15205 -0.70247,0.47768 -1.236347,0.47768 z"
           id="path10633" />
        <path
           d="m 36.730364,-13.078281 q -0.140494,0 -0.140494,-0.280988 0,-0.92726 1.573532,-4.720598 0.47768,-1.095853 0.95536,-2.191707 0.477679,-1.095853 0.92726,-2.191706 l 1.292545,-3.793338 q 0.309087,-0.955359 0.477679,-1.629731 0.196692,-0.70247 0.196692,-1.152051 0,-1.966916 -1.123952,-2.950374 -1.123952,-1.011556 -2.978473,-1.011556 -1.742125,0 -3.456152,0.786766 -1.685928,0.758668 -3.090868,2.079311 -1.376842,1.320644 -2.219806,2.950374 -1.208248,2.304102 -1.208248,4.21482 0,1.320644 0.646272,2.388398 0.646273,1.067755 1.685928,1.461138 0.730569,0.252889 1.433039,0.252889 0.983458,0 1.826422,-0.421482 0.842964,-0.449581 1.348743,-1.236347 0.533877,-0.786766 0.533877,-1.770224 0,-0.112396 0,-0.224791 0,-0.140494 -0.0281,-0.252889 -0.112395,-0.337186 0.168593,-0.337186 0.309087,0 0.337186,0.449581 0.0281,0.112395 0.0281,0.224791 0.0281,0.112395 0.0281,0.252889 0,1.011557 -0.674371,1.882619 -0.674371,0.871063 -1.742126,1.433039 -1.039655,0.533878 -2.163607,0.533878 -1.152051,0 -2.219806,-0.561976 -2.276002,-1.236348 -2.276002,-4.299117 0,-2.191706 1.180149,-4.242919 1.067755,-1.854521 2.781781,-3.231362 1.714027,-1.376841 3.76524,-2.135509 2.051212,-0.786766 4.074326,-0.786766 1.40494,0 2.528892,0.449581 1.123952,0.421482 1.770224,1.320643 0.674372,0.871063 0.674372,2.247904 0,2.613189 -2.3603,7.839566 -2.697485,5.928847 -2.697485,6.659415 0,0.196692 0.140494,0.140494 0.730569,-0.477679 6.603219,-7.530478 3.006571,-3.596647 5.085882,-5.816452 2.107411,-2.247904 3.315659,-3.118967 1.067754,-0.814865 1.854521,-1.320643 0.786766,-0.533878 1.264446,-0.814866 1.742125,-0.955359 3.203263,-0.955359 0.646273,0 0.983458,0.140494 0.365285,0.112395 0.365285,0.674371 0,0.365285 -0.25289,0.365285 -0.0843,0 -0.393383,-0.112395 -0.309087,-0.140494 -0.618173,-0.140494 -1.489237,0 -3.118967,0.871062 -3.259461,1.742126 -7.474281,6.237934 -1.208249,1.292545 -2.837979,3.203263 -1.601632,1.910719 -3.624745,4.46771 -3.203264,4.046227 -3.849536,4.411511 -1.208249,0.70247 -1.826422,0.983458 -0.590075,0.309087 -0.674371,0.309087 z"
           id="path10635" />
        <path
           d="m 47.997994,-15.017098 q -0.70247,0 -1.095853,-0.646272 -0.393384,-0.674372 -0.393384,-1.292545 0,-1.685928 2.444596,-4.720599 2.472694,-3.062769 3.99003,-3.062769 1.433039,0 1.433039,1.517335 0,0.224791 -0.0562,0.47768 -0.0281,0.252889 -0.0843,0.533877 0.0562,0.0843 0.280988,0.0843 0.758667,0 1.798323,-0.533877 -0.0281,0.47768 -2.219805,1.376841 0.309086,0.927261 -1.854521,3.540449 -2.219806,2.725584 -3.793338,2.725584 z m 0.505778,-0.842964 q 1.208249,0 3.090868,-2.219805 1.826422,-2.163608 1.826422,-3.118967 -0.449581,-0.252889 -1.123952,-1.292545 -0.955359,0 -2.753682,2.304102 -1.770225,2.247904 -1.714027,3.456152 0.0281,0.871063 0.674371,0.871063 z"
           id="path10637" />
        <path
           d="m 55.331785,-9.3130415 q -0.899162,0 -1.573533,-0.7586675 -0.674371,-0.786766 -0.646272,-1.742126 0.337185,0.421482 0.899161,0.983458 0.730569,0.70247 1.433039,0.70247 1.601632,0 3.456153,-2.556991 0.646272,-0.899161 1.320643,-2.10741 0.70247,-1.180149 1.320644,-2.641287 l 1.067754,-2.58509 -4.130523,3.231363 q -1.910719,1.489236 -3.06277,1.489236 -0.618173,0 -0.983458,-0.449581 -0.365284,-0.449581 -0.365284,-0.92726 0,-1.208249 2.079311,-3.961931 2.079311,-2.781781 3.118967,-2.781781 0.871063,0 0.871063,0.646272 0,0.252889 -2.500793,2.922275 -2.472695,2.641288 -2.472695,3.568548 0,0.365284 0.47768,0.365284 0.899161,0 3.905733,-2.3322 1.236347,-0.983458 2.191707,-1.798323 0.955359,-0.814866 1.601631,-1.461138 0.224791,-0.280988 0.449581,-0.533877 0.22479,-0.280988 0.421482,-0.561976 0.533877,-0.618174 1.067754,-0.618174 0.758668,0 0.758668,0.618174 0,0.112395 -1.18015,1.854521 -0.618173,0.955359 -0.983458,1.489236 -0.365284,0.505779 -0.421482,0.646273 -0.871062,1.685928 -2.669386,4.91729 -2.725583,4.3834125 -5.451167,4.3834125 z"
           id="path10639" />
        <path
           d="m 66.964716,-14.932802 q -0.674371,0 -1.348743,-0.477679 -0.674371,-0.47768 -0.758667,-1.123952 -0.280988,-2.163608 2.725583,-5.142081 2.978473,-2.978473 5.366871,-2.978473 0.646273,0 1.011557,0.309087 0.196692,0.196692 0.280988,0.533877 0.112395,0.337186 0.168593,0.337186 0.112395,0 0.196692,-0.0281 0.0843,-0.0562 0.196691,-0.0562 0.337186,0 0.590075,0.252889 0.252889,0.252889 0.280988,0.449581 0.0281,0.0562 -1.798323,2.781781 -1.826422,2.669386 -1.65783,3.624745 0.140494,0.646273 0.618174,0.646273 1.461138,0 5.338772,-4.832994 0.0843,-0.112395 0.168593,-0.112395 0.140494,0 0.140494,0.196691 0,0.224791 -0.252889,0.561976 -3.568548,4.804895 -5.479266,4.804895 -0.25289,0 -0.47768,-0.0843 -1.236347,-0.47768 -1.236347,-1.854521 0,-0.47768 0.112395,-0.955359 l -1.742126,1.685928 q -0.786766,0.786766 -1.433038,1.123952 -0.618174,0.337185 -1.011557,0.337185 z m -0.252889,-0.618173 q 1.62973,0 4.43961,-3.568548 l 2.978473,-4.102425 q -0.22479,-0.393383 -0.730569,-0.393383 -1.714027,0 -4.636302,2.753682 -3.03467,2.809881 -2.725584,4.636303 0.140494,0.674371 0.674372,0.674371 z"
           id="path10641" />
        <path
           d="m 76.34973,-9.3130415 q -0.842964,0 -1.433038,-0.7024695 -0.590075,-0.70247 -0.618174,-1.517336 0.0843,-0.337185 0.252889,-0.337185 0.168593,0 0.196692,0.421482 0.0281,0.449581 0.449581,0.871063 0.421482,0.421482 0.814865,0.421482 1.62973,0 3.428054,-2.107411 0.646272,-0.758667 1.320643,-1.798323 0.70247,-1.011557 1.348743,-2.304101 l 1.40494,-2.781782 -2.10741,2.135509 q -0.983458,0.983458 -1.714027,1.461138 -0.70247,0.477679 -1.095853,0.477679 -0.674372,0 -1.348743,-0.477679 -0.674371,-0.505779 -0.758668,-1.152051 -0.280988,-2.163608 2.725584,-5.142081 3.006572,-2.950374 5.366871,-2.950374 0.646272,0 1.011557,0.309087 0.196692,0.168593 0.280988,0.505779 0.112395,0.337185 0.168593,0.337185 0.112395,0 0.196691,-0.0281 0.0843,-0.0562 0.196692,-0.0562 0.365284,0 0.590075,0.252889 0.252889,0.252889 0.168593,0.505778 -0.0281,0.25289 -0.814866,1.517336 -0.505778,0.842964 -1.152051,2.051212 -0.646272,1.18015 -1.376841,2.472695 -0.70247,1.264446 -1.376841,2.360299 -0.674371,1.123952 -1.208248,1.826422 -2.58509,3.4280535 -4.917291,3.4280535 z m 1.995015,-6.4065265 q 1.629731,0 4.439611,-3.568548 l 2.978473,-4.102425 q -0.168593,-0.393383 -0.70247,-0.393383 -1.742126,0 -4.664401,2.753683 -3.034671,2.866077 -2.725584,4.636302 0.140494,0.674371 0.674371,0.674371 z"
           id="path10643" />
        <path
           d="m 88.48844,-14.708011 q -0.899162,0 -1.629731,-0.561976 -0.730569,-0.590075 -0.730569,-1.545434 0,-1.995015 2.444596,-4.552006 2.500793,-2.58509 4.467709,-2.58509 0.646273,0 1.039656,0.365285 0.421482,0.337185 0.421482,0.842964 0,1.573533 -2.500793,3.090868 -2.219805,1.348742 -3.737141,1.348742 -0.22479,0 -0.393383,-0.0562 -0.421482,0.758667 -0.421482,1.601631 0,1.461138 1.376841,1.461138 1.40494,0 3.624746,-1.88262 1.714026,-1.376841 2.922275,-2.922275 0.252889,-0.337186 0.449581,-0.337186 0.168592,0 0.168592,0.168593 0,0.168593 -0.22479,0.47768 -0.786766,1.039656 -1.685928,1.910718 -0.899162,0.871063 -1.938817,1.601632 -2.163608,1.573533 -3.652844,1.573533 z m 0.168592,-4.21482 q 1.067755,0 2.781782,-1.067755 0.561976,-0.393383 1.095853,-0.871063 0.561976,-0.505778 0.899162,-1.011556 0.365284,-0.505779 0.365284,-0.899162 0,-0.365284 -0.590075,-0.365284 -0.842964,0 -2.360299,1.264446 -0.730569,0.618173 -1.40494,1.348742 -0.674371,0.730569 -1.152051,1.545434 0.168593,0.0562 0.365284,0.0562 z"
           id="path10645" />
      </g>
    </g>
  </g>
</svg>
