<svg xmlns="http://www.w3.org/2000/svg" width="450" height="120" viewBox="0 0 119.062 31.75"><defs><filter id="a" width="1.034" height="1.155" x="-.017" y="-.078" style="color-interpolation-filters:sRGB"><feGaussianBlur stdDeviation=".54"/></filter></defs><g aria-label="Bon Voyage" style="font-size:28.0988px;font-family:&quot;Alex Brush&quot;;-inkscape-font-specification:&quot;Alex Brush, Normal&quot;;stroke:#000;stroke-width:1.32292;stroke-linecap:round;stroke-linejoin:bevel;filter:url(#a)" transform="translate(21.48 37.182)"><path d="M-8.48-11.694q-4.44 0-6.042-3.035-2.894 2.417-4.13 2.417-.59 0-.928-.562-.309-.562-.309-1.265 0-1.686 1.293-3.933.562-.984 1.236-1.799.675-.815 1.517-.815.815 0 1.237 1.35l.843 2.697q.45-.478.983-1.152.562-.703 1.237-1.63l2.5-3.372Q-4.434-28.778-3-29.34q.505-.197 1.011-.197.562 0 .9.253.365.225.365.534 0 .506-.815.59-.843.478-3.288 2.838-1.124 1.096-1.826 1.827-.675.702-.927 1.067-3.148 4.384-5.817 6.744 1.714 3.4 5.142 3.4 1.293 0 2.613-.562 1.35-.534 2.473-1.433 1.152-.9 1.855-1.995.702-1.124.702-2.22 0-1.152-.815-2.08-.815-.926-1.995-1.32l-.421-.056-1.293-.169q-1.32-.168-1.32-.534 0-.252.309-.45.337-.196.674-.196.253 0 .59.113.337.112.59.224l.281.085q.225.028.506.056h.562q1.854 0 3.372-.59 1.46-.59 2.135-1.63t.675-2.416q0-1.405-.9-2.22-.87-.815-2.332-1.152-1.433-.366-3.119-.366-3.287 0-6.266.956-2.95.955-5.114 3.175-1.658 1.714-1.658 2.866 0 .815.422 1.377.112.14.253.28.14.141.337.282.14.084-.169.084-1.742-.393-1.742-2.332t1.967-3.653q1.518-1.32 3.456-2.135 1.967-.815 4.13-1.18 2.193-.366 4.328-.366 1.517 0 2.922.225t2.53.759q1.123.505 1.77 1.348.674.843.674 2.08 0 1.742-.927 2.781-.928 1.04-2.501 1.602-1.855.646-3.99.674 1.18.057 2.051.619.9.562 1.377 1.46.506.9.506 1.968 0 1.433-.871 2.67-.843 1.207-2.276 2.106-1.434.872-3.148 1.35-1.714.505-3.428.505zm-9.807-1.264q.9 0 3.456-2.557l-.084-.113q-1.124-3.737-1.799-3.737-.028 0-.14.056-2.08 3.007-2.08 4.833 0 .394.141.956.169.562.506.562zM3.827-12.958q-.703 0-1.096-.647-.394-.674-.394-1.292 0-1.686 2.445-4.72 2.473-3.064 3.99-3.064 1.433 0 1.433 1.518 0 .225-.056.477-.028.253-.084.534.056.085.28.085.76 0 1.799-.534-.028.477-2.22 1.377.31.927-1.854 3.54-2.22 2.726-3.794 2.726zm.505-.843q1.209 0 3.091-2.22 1.827-2.164 1.827-3.12-.45-.252-1.124-1.292-.956 0-2.754 2.304-1.77 2.248-1.714 3.457.028.87.674.87zM17.68-12.958q-.76 0-1.068-.422-.31-.45-.31-1.096 0-1.63 1.124-3.484l1.799-2.922q-1.91 1.405-3.794 3.512-.505.562-1.152 1.32-.618.76-1.376 1.743-1.012 1.32-1.209 1.32-.393 0-.646-.337-.253-.365-.253-.646 0-.225.14-.815.141-.618.338-1.068.197-.477.393-.927.225-.478.422-.927l-1.686 1.77-.337.337q-.281.281-.45.281-.14 0-.14-.196 0-.057.056-.14.028-.113.168-.254.422-.421.871-.899.45-.478.928-1.096l.758-.927q.506-.646 1.096-1.377.618-.73 1.152-1.349.14-.196.31-.253.168-.084.224-.084.759 0 .759.59 0 .169-.085.337-2.528 3.485-3.034 5.311 3.26-3.26 5.226-4.89 1.995-1.657 2.838-1.657.45 0 .675.14.252.141.252.534 0 .14-.028.225-.084.197-1.152 1.574-.646.787-1.152 1.433-.477.646-.787 1.124-.505.787-.758 1.489-.253.674-.253 1.152 0 .197.056.478t.337.28q.647 0 2.023-1.123.647-.562 1.209-1.124.562-.59 1.067-1.152.113-.113.366-.422.253-.337.309-.337.112 0 .112.225 0 .112-.14.393-.113.253-.253.394-.31.365-.927 1.011-.59.646-1.35 1.32-.73.675-1.432 1.153-.703.478-1.237.478zM36.73-11.02q-.14 0-.14-.28 0-.928 1.573-4.721l.956-2.192q.477-1.096.927-2.192l1.293-3.793q.309-.955.477-1.63.197-.702.197-1.152 0-1.967-1.124-2.95-1.124-1.012-2.978-1.012-1.743 0-3.457.787-1.686.759-3.09 2.08-1.377 1.32-2.22 2.95-1.209 2.304-1.209 4.215 0 1.32.647 2.388.646 1.068 1.686 1.461.73.253 1.433.253.983 0 1.826-.421.843-.45 1.349-1.237.534-.787.534-1.77v-.225q0-.14-.028-.253-.113-.337.168-.337.31 0 .337.45.028.112.028.224.029.113.029.253 0 1.012-.675 1.883-.674.871-1.742 1.433-1.04.534-2.164.534-1.152 0-2.22-.562-2.275-1.236-2.275-4.3 0-2.19 1.18-4.242 1.068-1.855 2.782-3.231 1.714-1.377 3.765-2.136 2.051-.787 4.074-.787 1.405 0 2.53.45 1.123.421 1.77 1.32.674.872.674 2.248 0 2.614-2.36 7.84-2.698 5.929-2.698 6.66 0 .196.14.14.73-.478 6.604-7.53 3.006-3.597 5.085-5.817 2.108-2.248 3.316-3.119 1.068-.815 1.855-1.32.786-.535 1.264-.816 1.742-.955 3.203-.955.647 0 .984.14.365.113.365.675 0 .365-.253.365-.084 0-.393-.112-.31-.14-.618-.14-1.49 0-3.12.87-3.259 1.743-7.474 6.238-1.208 1.293-2.838 3.204-1.601 1.91-3.624 4.467-3.204 4.047-3.85 4.412-1.208.702-1.826.983-.59.31-.675.31z"/><path d="M47.998-12.958q-.702 0-1.096-.647-.393-.674-.393-1.292 0-1.686 2.444-4.72 2.473-3.064 3.99-3.064 1.433 0 1.433 1.518 0 .225-.056.477-.028.253-.084.534.056.085.28.085.76 0 1.8-.534-.029.477-2.22 1.377.309.927-1.855 3.54-2.22 2.726-3.793 2.726zm.506-.843q1.208 0 3.09-2.22 1.827-2.164 1.827-3.12-.45-.252-1.124-1.292-.955 0-2.754 2.304-1.77 2.248-1.714 3.457.028.87.675.87zM55.332-7.254q-.9 0-1.574-.759-.674-.787-.646-1.742.337.421.9.983.73.703 1.432.703 1.602 0 3.456-2.557.647-.9 1.321-2.108.702-1.18 1.32-2.64l1.068-2.586-4.13 3.231q-1.91 1.49-3.063 1.49-.618 0-.983-.45-.366-.45-.366-.927 0-1.209 2.08-3.962 2.079-2.782 3.119-2.782.87 0 .87.646 0 .253-2.5 2.923-2.473 2.64-2.473 3.568 0 .365.478.365.899 0 3.906-2.332 1.236-.983 2.191-1.798.956-.815 1.602-1.461.225-.281.45-.534.224-.281.421-.562.534-.618 1.068-.618.758 0 .758.618 0 .112-1.18 1.854-.618.956-.983 1.49-.365.505-.422.646-.87 1.686-2.67 4.917-2.725 4.384-5.45 4.384zM66.965-12.874q-.675 0-1.349-.478-.674-.477-.759-1.124-.28-2.163 2.726-5.142 2.978-2.978 5.367-2.978.646 0 1.011.309.197.196.281.534.113.337.169.337.112 0 .197-.028.084-.056.196-.056.337 0 .59.252.253.253.281.45.028.056-1.798 2.782-1.826 2.67-1.658 3.625.14.646.618.646 1.462 0 5.34-4.833.083-.113.168-.113.14 0 .14.197 0 .225-.253.562-3.568 4.805-5.479 4.805-.253 0-.478-.084-1.236-.478-1.236-1.855 0-.478.112-.955l-1.742 1.686q-.786.786-1.433 1.124-.618.337-1.011.337zm-.253-.618q1.63 0 4.44-3.569l2.978-4.102q-.225-.394-.73-.394-1.715 0-4.637 2.754-3.035 2.81-2.726 4.636.14.675.675.675z"/><path d="M76.35-7.254q-.843 0-1.433-.703-.59-.702-.618-1.517.084-.337.252-.337.169 0 .197.421.028.45.45.871.421.422.815.422 1.63 0 3.428-2.108.646-.758 1.32-1.798.703-1.012 1.349-2.304l1.405-2.782-2.107 2.136q-.984.983-1.715 1.46-.702.478-1.095.478-.675 0-1.35-.477-.673-.506-.758-1.152-.28-2.164 2.726-5.142 3.006-2.95 5.367-2.95.646 0 1.011.308.197.169.281.506.113.337.169.337.112 0 .197-.028.084-.056.196-.056.365 0 .59.253.253.253.169.506-.028.252-.815 1.517-.506.843-1.152 2.051-.646 1.18-1.377 2.473-.702 1.264-1.377 2.36-.674 1.124-1.208 1.827-2.585 3.428-4.917 3.428zm1.995-6.407q1.63 0 4.44-3.568l2.978-4.103q-.169-.393-.703-.393-1.742 0-4.664 2.753-3.035 2.867-2.726 4.637.14.674.675.674zM88.488-12.65q-.899 0-1.63-.561-.73-.59-.73-1.546 0-1.995 2.445-4.552 2.5-2.585 4.467-2.585.647 0 1.04.365.422.338.422.843 0 1.574-2.501 3.091-2.22 1.349-3.737 1.349-.225 0-.394-.056-.421.758-.421 1.601 0 1.462 1.377 1.462 1.405 0 3.624-1.883 1.714-1.377 2.923-2.922.253-.338.45-.338.168 0 .168.17 0 .168-.225.477-.787 1.04-1.686 1.91-.9.872-1.939 1.602-2.163 1.574-3.653 1.574zm.169-4.214q1.068 0 2.782-1.068.562-.393 1.096-.871.562-.506.899-1.012.365-.505.365-.899 0-.365-.59-.365-.843 0-2.36 1.264-.73.619-1.405 1.35-.675.73-1.152 1.545.168.056.365.056z"/></g><g aria-label="Bon Voyage" style="font-size:28.0988px;font-family:&quot;Alex Brush&quot;;-inkscape-font-specification:&quot;Alex Brush, Normal&quot;;stroke:#000;stroke-width:1.32292;stroke-linecap:round;stroke-linejoin:bevel"><path d="M13 23.429q-4.44 0-6.042-3.035-2.894 2.417-4.13 2.417-.59 0-.927-.562-.31-.562-.31-1.265 0-1.686 1.293-3.933.562-.984 1.236-1.799.675-.815 1.518-.815.815 0 1.236 1.35l.843 2.697q.45-.478.983-1.153.562-.702 1.237-1.63l2.5-3.371q4.609-5.985 6.042-6.547.506-.197 1.011-.197.562 0 .9.253.365.225.365.534 0 .506-.815.59-.843.478-3.288 2.838-1.124 1.096-1.826 1.826-.674.703-.927 1.068-3.147 4.384-5.817 6.744 1.714 3.4 5.142 3.4 1.293 0 2.614-.562 1.348-.534 2.472-1.433 1.152-.9 1.855-1.995.702-1.124.702-2.22 0-1.152-.815-2.08-.814-.927-1.995-1.32l-.421-.056-1.293-.169q-1.32-.168-1.32-.534 0-.252.309-.45.337-.196.674-.196.253 0 .59.113.337.112.59.224l.281.085q.225.028.506.056h.562q1.855 0 3.372-.59 1.461-.59 2.135-1.63.675-1.04.675-2.416 0-1.405-.9-2.22-.87-.815-2.332-1.152-1.433-.366-3.119-.366-3.287 0-6.266.956-2.95.955-5.114 3.175Q5.33 9.773 5.33 10.925q0 .815.421 1.377.112.14.253.28.14.141.337.282.14.084-.168.084-1.743-.393-1.743-2.332t1.967-3.653q1.518-1.32 3.457-2.135 1.966-.815 4.13-1.18 2.192-.366 4.327-.366 1.518 0 2.923.225 1.404.225 2.528.759 1.124.505 1.77 1.348.675.843.675 2.08 0 1.742-.927 2.781t-2.501 1.602q-1.855.646-3.99.674 1.18.057 2.051.619.9.562 1.377 1.46.506.9.506 1.968 0 1.433-.871 2.669-.843 1.208-2.276 2.107-1.433.871-3.147 1.35-1.714.505-3.428.505zm-9.807-1.265q.9 0 3.456-2.556l-.084-.113q-1.124-3.737-1.798-3.737-.028 0-.14.056-2.08 3.007-2.08 4.833 0 .394.14.956.169.561.506.561zM25.307 22.164q-.703 0-1.096-.646-.393-.674-.393-1.292 0-1.686 2.444-4.72 2.473-3.064 3.99-3.064 1.433 0 1.433 1.518 0 .224-.056.477-.028.253-.084.534.056.084.28.084.76 0 1.8-.533-.029.477-2.22 1.376.308.928-1.855 3.54-2.22 2.726-3.794 2.726zm.506-.842q1.208 0 3.09-2.22 1.827-2.164 1.827-3.12-.45-.252-1.124-1.292-.955 0-2.754 2.304-1.77 2.248-1.714 3.456.028.872.675.872zM39.16 22.164q-.76 0-1.068-.421-.31-.45-.31-1.096 0-1.63 1.125-3.484l1.798-2.922q-1.91 1.405-3.793 3.512-.506.562-1.152 1.32-.619.76-1.377 1.743-1.012 1.32-1.208 1.32-.394 0-.647-.337-.253-.365-.253-.646 0-.225.14-.815.141-.618.338-1.068.197-.477.393-.927.225-.478.422-.927l-1.686 1.77-.337.337q-.281.281-.45.281-.14 0-.14-.196 0-.057.056-.141.028-.112.169-.253.421-.421.87-.899.45-.478.928-1.096l.759-.927q.505-.646 1.095-1.377.619-.73 1.152-1.349.14-.196.31-.253.168-.084.224-.084.759 0 .759.59 0 .169-.084.337-2.53 3.485-3.035 5.311 3.26-3.26 5.226-4.89 1.995-1.657 2.838-1.657.45 0 .675.14.253.141.253.534 0 .14-.028.225-.085.197-1.153 1.574-.646.786-1.152 1.433-.477.646-.786 1.124-.506.786-.759 1.489-.253.674-.253 1.152 0 .197.056.478t.337.28q.647 0 2.024-1.123.646-.562 1.208-1.124.562-.59 1.068-1.152.112-.113.365-.422.253-.337.309-.337.112 0 .112.225 0 .112-.14.393-.113.253-.253.394-.31.365-.927 1.011-.59.646-1.349 1.32-.73.675-1.433 1.153-.703.477-1.236.477zM58.21 24.103q-.14 0-.14-.28 0-.928 1.574-4.721l.955-2.192q.478-1.096.927-2.192l1.293-3.793q.309-.955.477-1.63.197-.702.197-1.152 0-1.967-1.124-2.95-1.124-1.012-2.978-1.012-1.742 0-3.456.787-1.686.759-3.091 2.08-1.377 1.32-2.22 2.95-1.208 2.304-1.208 4.215 0 1.32.646 2.388t1.686 1.461q.73.253 1.433.253.983 0 1.826-.422.843-.45 1.349-1.236.534-.787.534-1.77v-.225q0-.14-.028-.253-.113-.337.168-.337.31 0 .338.45.028.112.028.224.028.113.028.253 0 1.012-.675 1.883-.674.871-1.742 1.433-1.04.534-2.163.534-1.152 0-2.22-.562-2.276-1.236-2.276-4.3 0-2.191 1.18-4.242 1.068-1.855 2.782-3.232 1.714-1.376 3.765-2.135 2.051-.787 4.074-.787 1.405 0 2.53.45 1.123.421 1.77 1.32.674.871.674 2.248 0 2.614-2.36 7.84-2.698 5.929-2.698 6.66 0 .196.14.14.731-.478 6.604-7.53 3.006-3.597 5.086-5.817 2.107-2.248 3.315-3.12 1.068-.814 1.855-1.32.787-.534 1.264-.815 1.742-.955 3.204-.955.646 0 .983.14.365.113.365.675 0 .365-.253.365-.084 0-.393-.112-.309-.14-.618-.14-1.49 0-3.12.87-3.259 1.742-7.473 6.238-1.209 1.293-2.838 3.204-1.602 1.91-3.625 4.467-3.203 4.046-3.85 4.412-1.208.702-1.826.983-.59.31-.674.31z"/><path d="M69.478 22.164q-.702 0-1.096-.646-.393-.674-.393-1.292 0-1.686 2.445-4.72 2.472-3.064 3.99-3.064 1.433 0 1.433 1.518 0 .224-.057.477-.028.253-.084.534.056.084.281.084.759 0 1.798-.533-.028.477-2.22 1.376.31.928-1.854 3.54-2.22 2.726-3.793 2.726zm.506-.842q1.208 0 3.09-2.22 1.827-2.164 1.827-3.12-.45-.252-1.124-1.292-.955 0-2.753 2.304-1.77 2.248-1.714 3.456.028.872.674.872zM76.812 27.869q-.9 0-1.574-.76-.674-.786-.646-1.741.337.421.9.983.73.703 1.432.703 1.602 0 3.457-2.557.646-.9 1.32-2.108.703-1.18 1.32-2.641l1.069-2.585-4.13 3.231q-1.912 1.49-3.064 1.49-.618 0-.983-.45t-.365-.927q0-1.209 2.079-3.962 2.08-2.782 3.119-2.782.87 0 .87.646 0 .253-2.5 2.922-2.473 2.642-2.473 3.569 0 .365.478.365.9 0 3.906-2.332 1.236-.983 2.192-1.798.955-.815 1.601-1.461.225-.281.45-.534.225-.281.421-.562.534-.618 1.068-.618.759 0 .759.618 0 .112-1.18 1.854-.619.956-.984 1.49-.365.505-.421.646-.872 1.686-2.67 4.917-2.725 4.384-5.451 4.384zM88.445 22.249q-.674 0-1.349-.478t-.758-1.124q-.281-2.163 2.725-5.142 2.979-2.978 5.367-2.978.646 0 1.012.309.196.196.28.534.113.337.17.337.111 0 .196-.028.084-.057.196-.057.338 0 .59.253.253.253.282.45.028.056-1.799 2.782-1.826 2.67-1.658 3.624.14.647.619.647 1.46 0 5.338-4.833.085-.113.169-.113.14 0 .14.197 0 .225-.252.562-3.569 4.805-5.48 4.805-.253 0-.477-.084-1.237-.478-1.237-1.855 0-.478.113-.955l-1.742 1.686q-.787.786-1.434 1.124-.618.337-1.011.337zm-.253-.618q1.63 0 4.44-3.569l2.978-4.102q-.225-.394-.73-.394-1.714 0-4.637 2.754-3.034 2.81-2.725 4.636.14.675.674.675z"/><path d="M97.83 27.869q-.843 0-1.433-.703-.59-.702-.618-1.517.084-.337.253-.337t.196.421q.028.45.45.871.421.422.815.422 1.63 0 3.428-2.108.646-.758 1.32-1.798.703-1.012 1.35-2.304l1.404-2.782-2.107 2.135q-.984.984-1.714 1.462-.703.477-1.096.477-.675 0-1.349-.477-.674-.506-.759-1.152-.28-2.164 2.726-5.143 3.007-2.95 5.367-2.95.646 0 1.011.31.197.168.281.505.113.337.169.337.112 0 .197-.028.084-.056.196-.056.366 0 .59.253.253.253.17.506-.029.252-.816 1.517-.506.843-1.152 2.051-.646 1.18-1.377 2.473-.702 1.264-1.377 2.36-.674 1.124-1.208 1.826-2.585 3.429-4.917 3.429zm1.995-6.407q1.63 0 4.44-3.569l2.978-4.102q-.169-.393-.702-.393-1.743 0-4.665 2.753-3.035 2.866-2.725 4.637.14.674.674.674zM109.969 22.474q-.9 0-1.63-.562-.73-.59-.73-1.546 0-1.995 2.444-4.552 2.5-2.585 4.468-2.585.646 0 1.04.365.42.338.42.843 0 1.574-2.5 3.091-2.22 1.349-3.737 1.349-.225 0-.394-.056-.421.758-.421 1.601 0 1.462 1.377 1.462 1.405 0 3.625-1.883 1.714-1.377 2.922-2.922.253-.338.45-.338.168 0 .168.169t-.225.478q-.787 1.04-1.686 1.91-.899.871-1.939 1.602-2.163 1.574-3.652 1.574zm.168-4.215q1.068 0 2.782-1.068.562-.393 1.096-.871.562-.506.899-1.012.365-.505.365-.899 0-.365-.59-.365-.843 0-2.36 1.264-.73.619-1.405 1.35-.674.73-1.152 1.545.169.056.365.056z"/></g><g aria-label="Bon Voyage" style="font-size:28.0988px;font-family:&quot;Alex Brush&quot;;-inkscape-font-specification:&quot;Alex Brush, Normal&quot;;fill:#fff;stroke-width:.529167;stroke-linecap:round;stroke-linejoin:bevel"><path d="M13 23.429q-4.44 0-6.042-3.035-2.894 2.417-4.13 2.417-.59 0-.927-.562-.31-.562-.31-1.265 0-1.686 1.293-3.933.562-.984 1.236-1.799.675-.815 1.518-.815.815 0 1.236 1.35l.843 2.697q.45-.478.983-1.153.562-.702 1.237-1.63l2.5-3.371q4.609-5.985 6.042-6.547.506-.197 1.011-.197.562 0 .9.253.365.225.365.534 0 .506-.815.59-.843.478-3.288 2.838-1.124 1.096-1.826 1.826-.674.703-.927 1.068-3.147 4.384-5.817 6.744 1.714 3.4 5.142 3.4 1.293 0 2.614-.562 1.348-.534 2.472-1.433 1.152-.9 1.855-1.995.702-1.124.702-2.22 0-1.152-.815-2.08-.814-.927-1.995-1.32l-.421-.056-1.293-.169q-1.32-.168-1.32-.534 0-.252.309-.45.337-.196.674-.196.253 0 .59.113.337.112.59.224l.281.085q.225.028.506.056h.562q1.855 0 3.372-.59 1.461-.59 2.135-1.63.675-1.04.675-2.416 0-1.405-.9-2.22-.87-.815-2.332-1.152-1.433-.366-3.119-.366-3.287 0-6.266.956-2.95.955-5.114 3.175Q5.33 9.773 5.33 10.925q0 .815.421 1.377.112.14.253.28.14.141.337.282.14.084-.168.084-1.743-.393-1.743-2.332t1.967-3.653q1.518-1.32 3.457-2.135 1.966-.815 4.13-1.18 2.192-.366 4.327-.366 1.518 0 2.923.225 1.404.225 2.528.759 1.124.505 1.77 1.348.675.843.675 2.08 0 1.742-.927 2.781t-2.501 1.602q-1.855.646-3.99.674 1.18.057 2.051.619.9.562 1.377 1.46.506.9.506 1.968 0 1.433-.871 2.669-.843 1.208-2.276 2.107-1.433.871-3.147 1.35-1.714.505-3.428.505m-9.807-1.265q.9 0 3.456-2.556l-.084-.113q-1.124-3.737-1.798-3.737-.028 0-.14.056-2.08 3.007-2.08 4.833 0 .394.14.956.169.561.506.561M25.307 22.164q-.703 0-1.096-.646-.393-.674-.393-1.292 0-1.686 2.444-4.72 2.473-3.064 3.99-3.064 1.433 0 1.433 1.518 0 .224-.056.477-.028.253-.084.534.056.084.28.084.76 0 1.8-.533-.029.477-2.22 1.376.308.928-1.855 3.54-2.22 2.726-3.794 2.726zm.506-.842q1.208 0 3.09-2.22 1.827-2.164 1.827-3.12-.45-.252-1.124-1.292-.955 0-2.754 2.304-1.77 2.248-1.714 3.456.028.872.675.872M39.16 22.164q-.76 0-1.068-.421-.31-.45-.31-1.096 0-1.63 1.125-3.484l1.798-2.922q-1.91 1.405-3.793 3.512-.506.562-1.152 1.32-.619.76-1.377 1.743-1.012 1.32-1.208 1.32-.394 0-.647-.337-.253-.365-.253-.646 0-.225.14-.815.141-.618.338-1.068.197-.477.393-.927.225-.478.422-.927l-1.686 1.77-.337.337q-.281.281-.45.281-.14 0-.14-.196 0-.057.056-.141.028-.112.169-.253.421-.421.87-.899.45-.478.928-1.096l.759-.927q.505-.646 1.095-1.377.619-.73 1.152-1.349.14-.196.31-.253.168-.084.224-.084.759 0 .759.59 0 .169-.084.337-2.53 3.485-3.035 5.311 3.26-3.26 5.226-4.89 1.995-1.657 2.838-1.657.45 0 .675.14.253.141.253.534 0 .14-.028.225-.085.197-1.153 1.574-.646.786-1.152 1.433-.477.646-.786 1.124-.506.786-.759 1.489-.253.674-.253 1.152 0 .197.056.478t.337.28q.647 0 2.024-1.123.646-.562 1.208-1.124.562-.59 1.068-1.152.112-.113.365-.422.253-.337.309-.337.112 0 .112.225 0 .112-.14.393-.113.253-.253.394-.31.365-.927 1.011-.59.646-1.349 1.32-.73.675-1.433 1.153-.703.477-1.236.477M58.21 24.103q-.14 0-.14-.28 0-.928 1.574-4.721l.955-2.192q.478-1.096.927-2.192l1.293-3.793q.309-.955.477-1.63.197-.702.197-1.152 0-1.967-1.124-2.95-1.124-1.012-2.978-1.012-1.742 0-3.456.787-1.686.759-3.091 2.08-1.377 1.32-2.22 2.95-1.208 2.304-1.208 4.215 0 1.32.646 2.388t1.686 1.461q.73.253 1.433.253.983 0 1.826-.422.843-.45 1.349-1.236.534-.787.534-1.77v-.225q0-.14-.028-.253-.113-.337.168-.337.31 0 .338.45.028.112.028.224.028.113.028.253 0 1.012-.675 1.883-.674.871-1.742 1.433-1.04.534-2.163.534-1.152 0-2.22-.562-2.276-1.236-2.276-4.3 0-2.191 1.18-4.242 1.068-1.855 2.782-3.232 1.714-1.376 3.765-2.135 2.051-.787 4.074-.787 1.405 0 2.53.45 1.123.421 1.77 1.32.674.871.674 2.248 0 2.614-2.36 7.84-2.698 5.929-2.698 6.66 0 .196.14.14.731-.478 6.604-7.53 3.006-3.597 5.086-5.817 2.107-2.248 3.315-3.12 1.068-.814 1.855-1.32.787-.534 1.264-.815 1.742-.955 3.204-.955.646 0 .983.14.365.113.365.675 0 .365-.253.365-.084 0-.393-.112-.309-.14-.618-.14-1.49 0-3.12.87-3.259 1.742-7.473 6.238-1.209 1.293-2.838 3.204-1.602 1.91-3.625 4.467-3.203 4.046-3.85 4.412-1.208.702-1.826.983-.59.31-.674.31"/><path d="M69.478 22.164q-.702 0-1.096-.646-.393-.674-.393-1.292 0-1.686 2.445-4.72 2.472-3.064 3.99-3.064 1.433 0 1.433 1.518 0 .224-.057.477-.028.253-.084.534.056.084.281.084.759 0 1.798-.533-.028.477-2.22 1.376.31.928-1.854 3.54-2.22 2.726-3.793 2.726zm.506-.842q1.208 0 3.09-2.22 1.827-2.164 1.827-3.12-.45-.252-1.124-1.292-.955 0-2.753 2.304-1.77 2.248-1.714 3.456.028.872.674.872M76.812 27.869q-.9 0-1.574-.76-.674-.786-.646-1.741.337.421.9.983.73.703 1.432.703 1.602 0 3.457-2.557.646-.9 1.32-2.108.703-1.18 1.32-2.641l1.069-2.585-4.13 3.231q-1.912 1.49-3.064 1.49-.618 0-.983-.45t-.365-.927q0-1.209 2.079-3.962 2.08-2.782 3.119-2.782.87 0 .87.646 0 .253-2.5 2.922-2.473 2.642-2.473 3.569 0 .365.478.365.9 0 3.906-2.332 1.236-.983 2.192-1.798.955-.815 1.601-1.461.225-.281.45-.534.225-.281.421-.562.534-.618 1.068-.618.759 0 .759.618 0 .112-1.18 1.854-.619.956-.984 1.49-.365.505-.421.646-.872 1.686-2.67 4.917-2.725 4.384-5.451 4.384M88.445 22.249q-.674 0-1.349-.478t-.758-1.124q-.281-2.163 2.725-5.142 2.979-2.978 5.367-2.978.646 0 1.012.309.196.196.28.534.113.337.17.337.111 0 .196-.028.084-.057.196-.057.338 0 .59.253.253.253.282.45.028.056-1.799 2.782-1.826 2.67-1.658 3.624.14.647.619.647 1.46 0 5.338-4.833.085-.113.169-.113.14 0 .14.197 0 .225-.252.562-3.569 4.805-5.48 4.805-.253 0-.477-.084-1.237-.478-1.237-1.855 0-.478.113-.955l-1.742 1.686q-.787.786-1.434 1.124-.618.337-1.011.337m-.253-.618q1.63 0 4.44-3.569l2.978-4.102q-.225-.394-.73-.394-1.714 0-4.637 2.754-3.034 2.81-2.725 4.636.14.675.674.675"/><path d="M97.83 27.869q-.843 0-1.433-.703-.59-.702-.618-1.517.084-.337.253-.337t.196.421q.028.45.45.871.421.422.815.422 1.63 0 3.428-2.108.646-.758 1.32-1.798.703-1.012 1.35-2.304l1.404-2.782-2.107 2.135q-.984.984-1.714 1.462-.703.477-1.096.477-.675 0-1.349-.477-.674-.506-.759-1.152-.28-2.164 2.726-5.143 3.007-2.95 5.367-2.95.646 0 1.011.31.197.168.281.505.113.337.169.337.112 0 .197-.028.084-.056.196-.056.366 0 .59.253.253.253.17.506-.029.252-.816 1.517-.506.843-1.152 2.051-.646 1.18-1.377 2.473-.702 1.264-1.377 2.36-.674 1.124-1.208 1.826-2.585 3.429-4.917 3.429m1.995-6.407q1.63 0 4.44-3.569l2.978-4.102q-.169-.393-.702-.393-1.743 0-4.665 2.753-3.035 2.866-2.725 4.637.14.674.674.674M109.969 22.474q-.9 0-1.63-.562-.73-.59-.73-1.546 0-1.995 2.444-4.552 2.5-2.585 4.468-2.585.646 0 1.04.365.42.338.42.843 0 1.574-2.5 3.091-2.22 1.349-3.737 1.349-.225 0-.394-.056-.421.758-.421 1.601 0 1.462 1.377 1.462 1.405 0 3.625-1.883 1.714-1.377 2.922-2.922.253-.338.45-.338.168 0 .168.169t-.225.478q-.787 1.04-1.686 1.91-.899.871-1.939 1.602-2.163 1.574-3.652 1.574m.168-4.215q1.068 0 2.782-1.068.562-.393 1.096-.871.562-.506.899-1.012.365-.505.365-.899 0-.365-.59-.365-.843 0-2.36 1.264-.73.619-1.405 1.35-.674.73-1.152 1.545.169.056.365.056"/></g></svg>